<?xml version="1.0" standalone="no"?>
<!DOCTYPE svg PUBLIC "-//W3C//DTD SVG 1.1//EN" "http://www.w3.org/Graphics/SVG/1.1/DTD/svg11.dtd" >
<svg xmlns="http://www.w3.org/2000/svg">
<metadata>Generated by IcoMoon</metadata>
<defs>
<font id="icomoon" horiz-adv-x="1024">
<font-face units-per-em="1024" ascent="960" descent="-64" />
<missing-glyph horiz-adv-x="1024" />
<glyph unicode="&#x20;" horiz-adv-x="512" d="" />
<glyph unicode="&#xe900;" glyph-name="car" d="M182.613 618.667c-78.507-68.267-121.173-168.96-107.52-245.76 13.653-69.973 52.907-81.92 68.267-20.48 5.12 22.187 22.187 46.080 39.253 51.2 27.307 10.24 27.307 10.24 0-20.48-35.84-39.253-37.547-110.933-5.12-138.24 39.253-32.427 119.467-15.36 138.24 29.013 15.36 35.84 27.307 37.547 174.080 37.547 114.347 0 158.72 5.12 160.427 22.187 0 10.24 8.533-5.12 17.067-34.133 25.6-90.453 133.12-97.28 177.493-11.947 10.24 17.067 32.427 32.427 51.2 32.427 46.080 0 52.907 54.613 17.067 122.88-23.893 42.667-47.787 61.44-100.693 73.387-73.387 18.773-122.88 40.96-247.467 110.933-61.44 34.133-98.987 42.667-199.68 42.667-114.347 0-129.707-5.12-182.613-51.2zM573.44 584.533l66.56-42.667-211.627-5.12c-116.053-1.707-215.040 0-220.16 3.413-11.947 13.653 32.427 63.147 73.387 80.213 63.147 27.307 218.453 8.533 291.84-35.84zM815.787 403.627c20.48-13.653 37.547-32.427 37.547-42.667 0-8.533-15.36 0-34.133 18.773-40.96 40.96-64.853 42.667-119.467 6.827l-42.667-27.307 40.96 35.84c47.787 42.667 66.56 44.373 117.76 8.533zM324.267 378.027c11.947-18.773 15.36-39.253 10.24-46.080-5.12-5.12-10.24 0-10.24 10.24s-11.947 30.72-27.307 44.373c-13.653 15.36-18.773 27.307-8.533 27.307s25.6-15.36 35.84-35.84zM269.653 314.88c3.413-23.893-3.413-37.547-20.48-37.547-32.427 0-49.493 29.013-37.547 61.44 13.653 37.547 51.2 20.48 58.027-23.893zM795.307 296.107c-17.067-27.307-61.44-22.187-73.387 8.533-13.653 37.547 30.72 63.147 61.44 34.133 11.947-13.653 17.067-32.427 11.947-42.667z" />
<glyph unicode="&#xe901;" glyph-name="jeep" d="M150.187 702.293c-17.067-8.533-30.72-34.133-30.72-56.32 0-25.6-11.947-44.373-34.133-49.493-29.013-6.827-34.133-23.893-34.133-112.64 0-92.16 3.413-104.107 34.133-104.107 25.6 0 34.133-11.947 34.133-42.667 0-63.147 56.32-56.32 87.040 11.947 46.080 105.813 184.32 104.107 225.28-3.413 18.773-49.493 23.893-51.2 126.293-51.2 98.987 0 109.227 3.413 124.587 40.96 22.187 59.733 92.16 102.4 145.067 88.747 25.6-6.827 59.733-37.547 80.213-71.68 18.773-32.427 44.373-56.32 54.613-52.907 23.893 8.533 35.84 97.28 11.947 97.28-10.24 0-18.773 22.187-18.773 47.787 0 69.973-29.013 88.747-139.947 88.747h-97.28l-46.080 76.8c-23.893 42.667-58.027 85.333-75.093 93.867-42.667 22.187-409.6 20.48-447.147-1.707zM375.467 593.067v-59.733h-187.733v119.467h187.733v-59.733zM616.107 589.653l35.84-56.32h-225.28v121.173l76.8-5.12c66.56-5.12 83.627-13.653 112.64-59.733zM249.173 371.2c-61.44-61.44-39.253-162.133 39.253-187.733 107.52-34.133 175.787 136.533 80.213 199.68-30.72 22.187-92.16 15.36-119.467-11.947zM349.867 311.467c6.827-10.24 1.707-30.72-10.24-44.373-18.773-22.187-23.893-22.187-46.080 0-13.653 13.653-18.773 32.427-13.653 42.667 15.36 23.893 56.32 23.893 69.973 1.707zM728.747 366.080c-54.613-59.733-27.307-158.72 49.493-180.907 46.080-13.653 126.293 47.787 126.293 98.987 0 97.28-114.347 150.187-175.787 81.92zM832.853 290.987c-3.413-22.187-17.067-39.253-30.72-39.253s-27.307 17.067-30.72 39.253c-5.12 29.013 3.413 37.547 30.72 37.547s35.84-8.533 30.72-37.547z" />
<glyph unicode="&#xe902;" glyph-name="moto" d="M529.067 688.64c0-8.533 15.36-18.773 34.133-23.893 66.56-17.067 34.133-46.080-49.493-46.080-69.973 0-87.040-6.827-95.573-34.133-10.24-30.72-25.6-34.133-134.827-34.133-90.453 0-131.413-6.827-146.773-25.6-18.773-22.187-10.24-25.6 63.147-25.6 69.973 0 92.16-8.533 129.707-47.787 25.6-25.6 46.080-63.147 46.080-81.92-1.707-32.427-1.707-32.427-25.6 1.707-85.333 121.173-184.32 126.293-244.053 13.653-30.72-56.32-23.893-100.693 18.773-151.893 58.027-66.56 139.947-64.853 199.68 6.827 40.96 47.787 54.613 54.613 134.827 54.613h88.747l51.2 116.053c51.2 112.64 52.907 114.347 75.093 71.68 18.773-35.84 18.773-46.080-1.707-69.973-58.027-64.853-15.36-208.213 66.56-223.573 90.453-17.067 163.84 42.667 165.547 136.533 0 71.68-64.853 139.947-133.12 139.947-42.667 0-54.613 13.653-105.813 119.467-46.080 97.28-64.853 119.467-97.28 119.467-22.187 0-39.253-6.827-39.253-15.36zM269.653 393.387c30.72-30.72 25.6-47.787-13.653-47.787-18.773 0-34.133-11.947-34.133-25.6 0-15.36 15.36-25.6 35.84-25.6s32.427-8.533 29.013-20.48c-5.12-11.947-34.133-22.187-66.56-22.187-46.080 0-59.733 8.533-73.387 46.080-27.307 78.507 66.56 151.893 122.88 95.573zM826.027 386.56c37.547-37.547 34.133-102.4-8.533-131.413-64.853-46.080-150.187 15.36-126.293 90.453 13.653 44.373 37.547 42.667 51.2 0 17.067-54.613 46.080-40.96 34.133 17.067-11.947 56.32 6.827 66.56 49.493 23.893zM687.787 642.56c-5.12-13.653-1.707-34.133 10.24-46.080 13.653-13.653 18.773-6.827 18.773 27.307 0 51.2-11.947 59.733-29.013 18.773z" />
<glyph unicode="&#xe903;" glyph-name="share" d="M641.707 751.787c-15.36-20.48-27.307-49.493-27.307-64.853 0-13.653-51.2-54.613-110.933-90.453-92.16-52.907-121.173-63.147-168.96-54.613-107.52 20.48-168.96-88.747-93.867-163.84 27.307-27.307 47.787-34.133 93.867-25.6 46.080 10.24 76.8 0 168.96-52.907 71.68-40.96 110.933-75.093 110.933-93.867 0-40.96 59.733-98.987 102.4-98.987 44.373 0 102.4 58.027 102.4 102.4 0 18.773-15.36 49.493-35.84 69.973-27.307 27.307-47.787 34.133-93.867 25.6-46.080-10.24-76.8 0-168.96 52.907-63.147 35.84-110.933 75.093-110.933 90.453s47.787 54.613 109.227 90.453c92.16 54.613 121.173 63.147 168.96 54.613 47.787-10.24 66.56-5.12 95.573 23.893 42.667 42.667 46.080 83.627 8.533 134.827-34.133 51.2-116.053 51.2-150.187 0z" />
<glyph unicode="&#xe904;" glyph-name="pin" d="M392.533 791.040c-133.12-69.973-168.96-232.107-87.040-401.067 47.787-97.28 182.613-283.307 206.507-283.307s158.72 186.027 206.507 283.307c20.48 44.373 40.96 116.053 44.373 158.72 11.947 145.067-107.52 274.773-250.88 274.773-32.427 0-87.040-13.653-119.467-32.427zM576.853 632.32c11.947-11.947 20.48-40.96 20.48-64.853s-8.533-52.907-20.48-64.853c-11.947-11.947-40.96-20.48-64.853-20.48s-52.907 8.533-64.853 20.48c-25.6 25.6-25.6 104.107 0 129.707 11.947 11.947 40.96 20.48 64.853 20.48s52.907-8.533 64.853-20.48z" />
<glyph unicode="&#xe905;" glyph-name="phone" d="M211.627 729.6c-17.067-40.96 6.827-163.84 51.2-256 81.92-177.493 283.307-317.44 460.8-322.56l87.040-1.707v170.667l-83.627 13.653c-76.8 11.947-87.040 10.24-128-29.013l-46.080-44.373-63.147 44.373c-35.84 23.893-87.040 75.093-116.053 112.64l-49.493 71.68 42.667 44.373c40.96 42.667 42.667 52.907 30.72 129.707l-13.653 83.627-81.92 5.12c-61.44 3.413-83.627-1.707-90.453-22.187z" />
<glyph unicode="&#xe906;" glyph-name="man" d="M477.867 789.333c-25.6-47.787 6.827-102.4 59.733-102.4s85.333 54.613 59.733 102.4c-10.24 20.48-35.84 34.133-59.733 34.133s-49.493-13.653-59.733-34.133zM361.813 627.2l-90.453-40.96 5.12-81.92c5.12-68.267 10.24-81.92 39.253-81.92 27.307 0 35.84 13.653 39.253 64.853 3.413 37.547 13.653 63.147 27.307 63.147 18.773 0 18.773-18.773 1.707-105.813-13.653-59.733-34.133-167.253-47.787-238.933l-25.6-133.12h40.96c35.84 0 42.667 13.653 68.267 136.533 29.013 131.413 30.72 134.827 61.44 107.52 23.893-20.48 30.72-52.907 30.72-136.533 0-104.107 1.707-107.52 42.667-107.52 42.667 0 42.667 1.707 42.667 133.12 0 112.64-5.12 139.947-34.133 165.547-18.773 17.067-34.133 51.2-34.133 76.8v46.080l83.627-40.96c90.453-44.373 121.173-40.96 121.173 13.653 0 22.187-11.947 32.427-35.84 32.427-32.427 0-87.040 46.080-155.307 133.12-37.547 47.787-68.267 46.080-180.907-5.12z" />
<glyph unicode="&#xe907;" glyph-name="feed-back" d="M233.813 727.893c-6.827-6.827-11.947-139.947-11.947-295.253v-281.6l128 124.587 443.733 10.24v443.733l-274.773 5.12c-150.187 1.707-278.187-1.707-285.013-6.827zM426.667 507.733c0-13.653-11.947-25.6-25.6-25.6s-25.6 11.947-25.6 25.6c0 13.653 11.947 25.6 25.6 25.6s25.6-11.947 25.6-25.6zM529.067 507.733c0-13.653-6.827-25.6-17.067-25.6-8.533 0-17.067 11.947-17.067 25.6s8.533 25.6 17.067 25.6c10.24 0 17.067-11.947 17.067-25.6zM648.533 507.733c0-13.653-11.947-25.6-25.6-25.6s-25.6 11.947-25.6 25.6c0 13.653 11.947 25.6 25.6 25.6s25.6-11.947 25.6-25.6z" />
<glyph unicode="&#xe908;" glyph-name="f" d="M481.28 811.52c-34.133-13.653-71.68-100.693-71.68-167.253 0-47.787-6.827-59.733-34.133-59.733-29.013 0-34.133-11.947-34.133-68.267s5.12-68.267 34.133-68.267c32.427 0 34.133-11.947 34.133-179.2v-179.2h170.667v356.693l47.787 5.12c39.253 5.12 46.080 13.653 51.2 69.973 5.12 59.733 3.413 63.147-46.080 63.147-47.787 0-52.907 5.12-52.907 51.2s5.12 51.2 51.2 51.2c47.787 0 51.2 3.413 51.2 68.267v68.267l-88.747-1.707c-49.493 0-100.693-5.12-112.64-10.24z" />
<glyph unicode="&#xe909;" glyph-name="dollar" d="M477.867 683.52c-1.707-11.947-25.6-37.547-56.32-56.32-107.52-68.267-73.387-180.907 68.267-216.747 40.96-8.533 73.387-23.893 73.387-32.427 0-22.187-97.28-18.773-138.24 3.413-29.013 13.653-39.253 11.947-58.027-13.653-29.013-39.253-18.773-54.613 52.907-83.627 32.427-13.653 58.027-32.427 58.027-40.96 0-10.24 15.36-17.067 34.133-17.067s34.133 10.24 34.133 23.893c0 13.653 17.067 27.307 39.253 34.133 56.32 13.653 90.453 83.627 69.973 141.653-13.653 42.667-52.907 64.853-175.787 100.693-17.067 5.12-18.773 13.653-5.12 27.307 11.947 11.947 34.133 11.947 75.093-1.707 47.787-17.067 59.733-15.36 76.8 8.533 25.6 35.84 15.36 54.613-39.253 75.093-22.187 8.533-40.96 27.307-40.96 42.667 0 30.72-68.267 35.84-68.267 5.12z" />
<glyph unicode="&#xe90a;" glyph-name="clock" d="M366.933 698.88c-191.147-107.52-191.147-394.24 0-501.76 194.56-109.227 435.2 29.013 435.2 250.88s-240.64 360.107-435.2 250.88zM667.307 603.307c59.733-59.733 66.56-75.093 66.56-155.307s-6.827-95.573-66.56-155.307c-59.733-59.733-75.093-66.56-155.307-66.56s-95.573 6.827-155.307 66.56c-97.28 97.28-97.28 213.333 0 310.613 59.733 59.733 75.093 66.56 155.307 66.56s95.573-6.827 155.307-66.56zM512 538.453c0-69.973-8.533-88.747-63.147-146.773-63.147-63.147-63.147-66.56-32.427-90.453 18.773-13.653 63.147-23.893 100.693-23.893 93.867 0 165.547 73.387 165.547 170.667 0 56.32-10.24 81.92-49.493 121.173-27.307 27.307-66.56 49.493-85.333 49.493-30.72 0-35.84-10.24-35.84-80.213z" />
<glyph unicode="&#xe90b;" glyph-name="car2" d="M281.6 721.067c-46.080-75.093-76.8-223.573-76.8-378.88v-167.253h51.2c39.253 0 51.2 6.827 51.2 34.133 0 32.427 11.947 34.133 204.8 34.133s204.8-1.707 204.8-34.133c0-27.307 11.947-34.133 51.2-34.133h51.2l-1.707 175.787c0 134.827-8.533 196.267-37.547 276.48l-37.547 102.4-225.28 5.12c-138.24 1.707-228.693-1.707-235.52-13.653zM715.093 634.027c35.84-102.4 39.253-100.693-203.093-100.693s-238.933-1.707-203.093 100.693l18.773 52.907h368.64l18.773-52.907zM366.933 405.333c0-37.547-52.907-56.32-80.213-29.013-29.013 29.013-1.707 75.093 40.96 68.267 25.6-3.413 39.253-17.067 39.253-39.253zM742.4 405.333c0-37.547-52.907-56.32-80.213-29.013-29.013 29.013-1.707 75.093 40.96 68.267 25.6-3.413 39.253-17.067 39.253-39.253z" />
<glyph unicode="&#xe90c;" glyph-name="bag" d="M404.48 707.413c-17.067-17.067-29.013-44.373-29.013-59.733 0-22.187-17.067-29.013-75.093-29.013-93.867 0-116.053-25.6-109.227-131.413l5.12-81.92 124.587-5.12c100.693-3.413 122.88 0 122.88 22.187 0 18.773 17.067 25.6 59.733 25.6s59.733-6.827 59.733-25.6c0-22.187 22.187-25.6 124.587-22.187l122.88 5.12 5.12 81.92c6.827 105.813-15.36 131.413-109.227 131.413-61.44 0-75.093 5.12-75.093 30.72 0 81.92-167.253 124.587-226.987 58.027zM563.2 644.267c0-17.067-18.773-25.6-59.733-25.6s-59.733 8.533-59.733 25.6c0 17.067 18.773 25.6 59.733 25.6s59.733-8.533 59.733-25.6zM225.28 273.92l5.12-90.453h546.133l5.12 90.453 5.12 88.747h-110.933c-63.147 0-112.64-6.827-112.64-17.067 0-8.533-27.307-17.067-59.733-17.067s-59.733 8.533-59.733 17.067c0 10.24-49.493 17.067-112.64 17.067h-110.933l5.12-88.747z" />
<glyph unicode="&#xe90d;" glyph-name="route" d="M401.067 900.267c-54.613-52.907-54.613-128-1.707-191.147 32.427-37.547 54.613-47.787 112.64-47.787s80.213 10.24 112.64 47.787c87.040 102.4 23.893 233.813-112.64 233.813-51.2 0-80.213-10.24-110.933-42.667zM564.907 874.667c37.547-20.48 44.373-100.693 11.947-133.12-54.613-54.613-179.2 8.533-155.307 80.213 22.187 61.44 81.92 85.333 143.36 52.907zM482.987 564.053c3.413-11.947 17.067-22.187 29.013-22.187s25.6 10.24 30.72 22.187c3.413 11.947-8.533 20.48-30.72 20.48s-34.133-8.533-29.013-20.48zM482.987 461.653c3.413-11.947 17.067-22.187 29.013-22.187s25.6 10.24 30.72 22.187c3.413 11.947-8.533 20.48-30.72 20.48s-34.133-8.533-29.013-20.48zM482.987 359.253c3.413-11.947 17.067-22.187 29.013-22.187s25.6 10.24 30.72 22.187c3.413 11.947-8.533 20.48-30.72 20.48s-34.133-8.533-29.013-20.48zM423.253 226.133c-40.96-40.96-49.493-61.44-39.253-97.28 11.947-52.907 105.813-192.853 128-192.853s116.053 139.947 128 192.853c10.24 35.84 1.707 56.32-39.253 97.28-64.853 64.853-112.64 64.853-177.493 0zM542.72 152.747c3.413-20.48-5.12-29.013-29.013-29.013-20.48 0-35.84 10.24-35.84 22.187 0 52.907 54.613 58.027 64.853 6.827z" />
<glyph unicode="&#xe90e;" glyph-name="search" d="M300.373 702.293c-124.587-97.28-124.587-257.707 0-354.987 49.493-39.253 172.373-49.493 228.693-18.773 27.307 13.653 46.080 1.707 121.173-76.8 81.92-87.040 92.16-92.16 116.053-68.267 25.6 25.6 18.773 35.84-68.267 119.467-88.747 85.333-93.867 93.867-73.387 131.413 47.787 83.627 17.067 197.973-71.68 267.947-61.44 49.493-191.147 49.493-252.587 0zM520.533 630.613c97.28-81.92 34.133-250.88-93.867-250.88-27.307 0-69.973 17.067-93.867 39.253-97.28 81.92-34.133 250.88 93.867 250.88 27.307 0 69.973-17.067 93.867-39.253z" />
<glyph unicode="&#xe90f;" glyph-name="location" d="M477.867 791.040c0-22.187-23.893-40.96-76.8-59.733-85.333-34.133-150.187-100.693-179.2-189.44-13.653-40.96-30.72-59.733-52.907-59.733-20.48 0-32.427-11.947-32.427-34.133s11.947-34.133 32.427-34.133c22.187 0 40.96-23.893 59.733-76.8 34.133-85.333 100.693-150.187 189.44-179.2 40.96-13.653 59.733-30.72 59.733-52.907 0-20.48 11.947-32.427 34.133-32.427s34.133 11.947 34.133 32.427c0 22.187 18.773 39.253 59.733 52.907 88.747 29.013 155.307 93.867 189.44 179.2 18.773 52.907 37.547 76.8 59.733 76.8 20.48 0 32.427 11.947 32.427 34.133s-11.947 34.133-32.427 34.133c-22.187 0-40.96 23.893-59.733 76.8-34.133 85.333-100.693 150.187-189.44 179.2-40.96 13.653-59.733 30.72-59.733 52.907 0 20.48-11.947 32.427-34.133 32.427s-34.133-11.947-34.133-32.427zM628.053 652.8c30.72-18.773 69.973-58.027 88.747-88.747 121.173-199.68-121.173-442.027-320.853-320.853-30.72 18.773-69.973 58.027-88.747 88.747-121.173 199.68 121.173 442.027 320.853 320.853zM418.133 541.867c-85.333-83.627-25.6-230.4 93.867-230.4 32.427 0 68.267 15.36 93.867 42.667 85.333 83.627 25.6 230.4-93.867 230.4-32.427 0-68.267-15.36-93.867-42.667z" />
<glyph unicode="&#xe910;" glyph-name="clock2" d="M395.947 652.8c-116.053-71.68-155.307-211.627-88.747-320.853 97.28-160.427 312.32-160.427 409.6 0 121.173 199.68-121.173 442.027-320.853 320.853zM641.707 577.707c47.787-47.787 58.027-71.68 58.027-129.707s-10.24-81.92-58.027-129.707c-81.92-81.92-177.493-81.92-259.413 0-47.787 47.787-58.027 71.68-58.027 129.707 0 102.4 85.333 187.733 187.733 187.733 58.027 0 81.92-10.24 129.707-58.027zM494.933 492.373c0-68.267 5.12-78.507 59.733-110.933 32.427-18.773 63.147-27.307 68.267-18.773s-13.653 29.013-42.667 44.373c-42.667 25.6-51.2 42.667-51.2 95.573 0 35.84-6.827 64.853-17.067 64.853-8.533 0-17.067-34.133-17.067-75.093z" />
<glyph unicode="&#xe911;" glyph-name="navigate" d="M293.547 664.747c-104.107-105.813-191.147-199.68-191.147-208.213 0-22.187 378.88-401.067 401.067-401.067s401.067 378.88 401.067 401.067c0 22.187-378.88 401.067-401.067 401.067-10.24 0-104.107-87.040-209.92-192.853zM643.413 436.053l-63.147-64.853v47.787c0 46.080-1.707 47.787-80.213 42.667s-81.92-6.827-87.040-59.733c-5.12-42.667-13.653-56.32-39.253-56.32-30.72 0-34.133 10.24-29.013 90.453l5.12 88.747 116.053 5.12c110.933 5.12 114.347 6.827 114.347 51.2v46.080l63.147-64.853 64.853-63.147-64.853-63.147z" />
<glyph unicode="&#xe912;" glyph-name="share2" d="M436.907 714.24l-63.147-78.507h87.040v-341.333h42.667c42.667 0 42.667 0 42.667 168.96 0 167.253 0 170.667 40.96 175.787 42.667 5.12 40.96 5.12-22.187 80.213l-63.147 73.387-64.853-78.507zM221.867 328.533v-221.867h563.2v443.733h-93.867c-81.92 0-93.867-3.413-93.867-34.133 0-27.307 11.947-34.133 59.733-34.133h59.733v-307.2h-426.667v307.2h59.733c47.787 0 59.733 6.827 59.733 34.133 0 30.72-11.947 34.133-93.867 34.133h-93.867v-221.867z" />
<glyph unicode="&#xe913;" glyph-name="circle" d="M382.293 577.707c-81.92-81.92-81.92-177.493 0-259.413 47.787-47.787 71.68-58.027 129.707-58.027s81.92 10.24 129.707 58.027c47.787 47.787 58.027 71.68 58.027 129.707 0 102.4-85.333 187.733-187.733 187.733-58.027 0-81.92-10.24-129.707-58.027zM588.8 524.8c23.893-22.187 42.667-56.32 42.667-76.8 0-46.080-73.387-119.467-119.467-119.467s-119.467 73.387-119.467 119.467c0 46.080 73.387 119.467 119.467 119.467 20.48 0 54.613-18.773 76.8-42.667zM460.8 490.667c-25.6-30.72-17.067-76.8 22.187-100.693 58.027-37.547 124.587 46.080 80.213 100.693-27.307 32.427-75.093 32.427-102.4 0z" />
<glyph unicode="&#xe914;" glyph-name="e" d="M406.187 599.893c-25.6-13.653-30.72-40.96-30.72-150.187 0-163.84 10.24-175.787 157.013-168.96 93.867 5.12 107.52 8.533 107.52 39.253 0 29.013-13.653 34.133-80.213 39.253-87.040 5.12-114.347 37.547-34.133 37.547 27.307 0 63.147 11.947 81.92 25.6 32.427 25.6 32.427 25.6 0 51.2-18.773 13.653-54.613 25.6-81.92 25.6-80.213 0-52.907 32.427 34.133 37.547 66.56 5.12 80.213 10.24 80.213 39.253 0 30.72-11.947 34.133-102.4 37.547-56.32 3.413-116.053-3.413-131.413-13.653z" />
<glyph unicode="&#xe915;" glyph-name="dotes" d="M477.867 584.533c0-22.187 11.947-34.133 34.133-34.133s34.133 11.947 34.133 34.133c0 22.187-11.947 34.133-34.133 34.133s-34.133-11.947-34.133-34.133zM477.867 448c0-22.187 11.947-34.133 34.133-34.133s34.133 11.947 34.133 34.133c0 22.187-11.947 34.133-34.133 34.133s-34.133-11.947-34.133-34.133zM477.867 311.467c0-22.187 11.947-34.133 34.133-34.133s34.133 11.947 34.133 34.133c0 22.187-11.947 34.133-34.133 34.133s-34.133-11.947-34.133-34.133z" />
<glyph unicode="&#xe916;" glyph-name="filter" d="M267.947 692.053c-25.6-25.6-6.827-71.68 81.92-204.8 68.267-104.107 93.867-157.013 93.867-199.68s15.36-78.507 52.907-121.173c80.213-90.453 100.693-80.213 100.693 49.493 0 105.813 3.413 116.053 102.4 262.827 107.52 160.427 119.467 197.973 75.093 215.040-35.84 13.653-493.227 13.653-506.88-1.707z" />
<glyph unicode="&#xe917;" glyph-name="pin2" d="M366.933 920.747c-59.733-27.307-157.013-131.413-180.907-194.56-39.253-105.813-8.533-250.88 76.8-343.040 40.96-46.080 148.48-105.813 189.44-105.813 20.48 0 25.6-29.013 25.6-170.667 0-139.947 5.12-170.667 25.6-170.667s25.6 30.72 25.6 170.667c0 141.653 5.12 170.667 25.6 170.667 40.96 0 148.48 59.733 189.44 105.813 71.68 76.8 95.573 148.48 88.747 254.293-8.533 105.813-56.32 186.027-155.307 261.12-58.027 42.667-235.52 56.32-310.613 22.187zM634.88 741.547c98.987-97.28 64.853-249.173-66.56-303.787-52.907-22.187-69.973-23.893-122.88-3.413-83.627 32.427-143.36 122.88-131.413 199.68 10.24 61.44 64.853 131.413 121.173 157.013 58.027 25.6 148.48 3.413 199.68-49.493zM418.133 695.467c-23.893-22.187-42.667-61.44-42.667-85.333 0-56.32 71.68-128 128-128 23.893 0 63.147 18.773 85.333 42.667 23.893 22.187 42.667 61.44 42.667 85.333s-18.773 63.147-42.667 85.333c-22.187 23.893-61.44 42.667-85.333 42.667s-63.147-18.773-85.333-42.667z" />
<glyph unicode="&#xea10;" glyph-name="checkmark" d="M864 832l-480-480-224 224-160-160 384-384 640 640z" />
</font>
</defs>
</svg>
